<?xml version="1.0" encoding="UTF-8" standalone="no"?>
<!-- Creator: CorelDRAW -->
<svg
   xmlns:dc="http://purl.org/dc/elements/1.1/"
   xmlns:cc="http://web.resource.org/cc/"
   xmlns:rdf="http://www.w3.org/1999/02/22-rdf-syntax-ns#"
   xmlns:svg="http://www.w3.org/2000/svg"
   xmlns="http://www.w3.org/2000/svg"
   xmlns:sodipodi="http://sodipodi.sourceforge.net/DTD/sodipodi-0.dtd"
   xmlns:inkscape="http://www.inkscape.org/namespaces/inkscape"
   xml:space="preserve"
   width="744"
   height="980.92639"
   style="shape-rendering:geometricPrecision; text-rendering:geometricPrecision; image-rendering:optimizeQuality; fill-rule:evenodd; clip-rule:evenodd"
   viewBox="0 0 210 297"
   id="svg2"
   sodipodi:version="0.32"
   inkscape:version="0.45.1"
   sodipodi:docname="POL Płock COA.svg"
   inkscape:output_extension="org.inkscape.output.svg.inkscape"
   sodipodi:docbase="C:\Users\Mistrz\Desktop"
   version="1.0"><metadata
   id="metadata21"><rdf:RDF><cc:Work
       rdf:about=""><dc:format>image/svg+xml</dc:format><dc:type
         rdf:resource="http://purl.org/dc/dcmitype/StillImage" /></cc:Work></rdf:RDF></metadata><sodipodi:namedview
   inkscape:window-height="480"
   inkscape:window-width="640"
   inkscape:pageshadow="2"
   inkscape:pageopacity="0.0"
   guidetolerance="10.0"
   gridtolerance="10.0"
   objecttolerance="10.0"
   borderopacity="1.0"
   bordercolor="#666666"
   pagecolor="#ffffff"
   id="base" />
 <defs
   id="defs4">
  <style
   type="text/css"
   id="style6">
   
    .fil4 {fill:white;fill-rule:nonzero}
    .fil0 {fill:black;fill-rule:nonzero}
    .fil3 {fill:#008FD4;fill-rule:nonzero}
    .fil1 {fill:#ED1C24;fill-rule:nonzero}
    .fil2 {fill:#FFDD00;fill-rule:nonzero}
   
  </style>
 </defs>
 <g
   id="Warstwa_x0020_1"
   transform="matrix(1.0726886,0,0,1.0726886,-7.6323045,-10.794263)">
  <metadata
   id="CorelCorpID_0Corel-Layer" />
  <path
   class="fil0"
   d="M 0.0001,10.063 L 0.0001,194.338 C 0.008,196.5465 0.3622,205.9728 5.0894,217.4136 C 9.9757,229.2628 20.6992,245.5098 43.9891,255.6805 C 50.8775,258.6854 57.7456,260.886 64.3983,263.0066 C 79.4835,267.841 93.7454,272.4171 103.9003,285.5126 L 105.0057,286.9372 L 106.093,285.5126 C 116.2548,272.4171 130.5087,267.841 145.6052,263.0066 C 152.2466,260.886 159.1192,258.6854 166.011,255.6805 C 189.301,245.5098 200.0244,229.2628 204.9107,217.4136 C 209.4191,206.5221 209.9447,197.4534 210,194.6888 L 210,10.0628 L 2.8421709e-014,10.0628 L 0.0001,10.063 z "
   id="path10"
   style="fill:#000000;fill-rule:nonzero" />
  <path
   class="fil1"
   d="M 207.437,193.483 L 195.122,193.483 L 195.122,187.1676 L 184.1358,187.1676 L 184.1358,157.0332 C 186.4593,156.9182 188.3182,155.0198 188.3182,152.668 C 188.3182,150.3208 186.4593,148.4145 184.1358,148.3029 L 184.1358,142.2074 C 186.4593,142.0912 188.3182,140.1895 188.3182,137.8422 C 188.3182,135.4904 186.4593,133.5887 184.1358,133.4804 L 184.1358,127.3805 C 186.4593,127.2688 188.3182,125.3558 188.3182,123.0119 C 188.3182,120.6635 186.4593,118.7494 184.1358,118.6388 L 184.1358,83.59 L 190.9238,75.8624 L 170.6026,36.4844 L 171.2715,36.4844 C 173.6977,36.4844 175.6682,34.4992 175.6682,32.0752 C 175.6682,29.6445 173.6977,27.6706 171.2715,27.6706 L 163.7977,27.6706 C 161.3669,27.6706 159.3851,29.6445 159.3851,32.0752 C 159.3851,34.4992 161.3669,36.4844 163.7977,36.4844 L 164.7057,36.4844 L 143.4325,75.8545 L 150.2329,83.5821 L 150.2329,118.6862 C 148.1281,119.0088 146.505,120.8192 146.505,123.0119 C 146.505,125.2001 148.1281,127.0071 150.2329,127.3365 L 150.2329,133.5244 C 148.1281,133.847 146.505,135.645 146.505,137.8422 C 146.505,140.0304 148.1281,141.8374 150.2329,142.1589 L 150.2329,148.3514 C 148.1281,148.6728 146.505,150.4753 146.505,152.668 C 146.505,154.8653 148.1281,156.6632 150.2329,156.9858 L 150.2329,179.8257 L 107.5963,99.6261 L 108.6194,99.6261 C 111.0501,99.6261 113.0195,97.6521 113.0195,95.2248 C 113.0195,92.7862 111.0501,90.8201 108.6194,90.8201 L 107.7914,90.8201 L 107.7914,76.7771 L 114.4486,76.7771 L 114.4486,76.917 C 114.4486,78.6202 115.845,80.0132 117.5482,80.0132 C 118.3401,80.0132 118.9209,79.8215 119.3146,79.3917 C 120.0387,78.6044 119.9474,77.3231 119.8357,75.8421 C 119.8008,75.3176 119.7568,74.7637 119.7489,74.211 C 119.7489,73.6504 119.7929,73.0887 119.8278,72.5439 C 119.9395,71.0719 120.0196,69.7985 119.3067,69.0304 C 118.9131,68.6085 118.3401,68.4055 117.5482,68.4055 C 115.845,68.4055 114.4486,69.7985 114.4486,71.513 L 114.4486,71.6449 L 107.7914,71.6449 L 107.7914,65.7909 C 109.3356,65.616 110.529,64.3031 110.529,62.7149 C 110.529,60.6305 109.0841,60.3632 107.8196,60.3632 C 107.3651,60.3632 106.8755,60.3914 106.3544,60.4354 C 105.8299,60.4793 105.2806,60.5064 104.7313,60.5064 C 104.1425,60.5064 103.5808,60.4793 103.0518,60.4433 C 102.551,60.4072 102.0851,60.3756 101.6351,60.3756 C 100.3706,60.3711 98.9257,60.6384 98.9257,62.7149 C 98.9257,64.2828 100.1112,65.6036 101.6193,65.7909 L 101.6193,71.6449 L 95.3208,71.6449 L 95.3208,71.513 C 95.3208,69.7985 93.9244,68.4055 92.2133,68.4055 C 91.4215,68.4055 90.8406,68.6164 90.4458,69.0461 C 89.7295,69.8143 89.8175,71.099 89.9247,72.5879 C 89.9687,73.1124 90.0048,73.6617 90.0127,74.211 C 90.0127,74.7637 89.9687,75.3334 89.9326,75.8906 C 89.8288,77.3592 89.7419,78.6281 90.4616,79.3962 C 90.8485,79.8215 91.4249,80.0132 92.2133,80.0132 C 93.9244,80.0132 95.3208,78.6281 95.3208,76.917 L 95.3208,76.7771 L 101.6193,76.7771 L 101.6193,90.8201 L 101.1455,90.8201 C 98.7193,90.8201 96.7409,92.802 96.7409,95.2248 C 96.7409,97.6521 98.7193,99.6261 101.1455,99.6261 L 102.181,99.6261 L 60.149,178.6764 L 60.149,157.0332 C 62.4726,156.9182 64.3303,155.0198 64.3303,152.668 C 64.3303,150.3208 62.4726,148.4145 60.149,148.3029 L 60.149,142.2074 C 62.4726,142.0912 64.3303,140.1895 64.3303,137.8422 C 64.3303,135.4904 62.4726,133.5887 60.149,133.4804 L 60.149,127.3805 C 62.4726,127.2688 64.3303,125.3558 64.3303,123.0119 C 64.3303,120.6635 62.4726,118.7494 60.149,118.6388 L 60.149,83.59 L 66.937,75.8624 L 46.6158,36.4844 L 47.2881,36.4844 C 49.7109,36.4844 51.6848,34.4992 51.6848,32.0752 C 51.6848,29.6445 49.7109,27.6706 47.2881,27.6706 L 39.8154,27.6706 C 37.3835,27.6706 35.4028,29.6445 35.4028,32.0752 C 35.4028,34.4992 37.3835,36.4844 39.8154,36.4844 L 40.7189,36.4844 L 19.4502,75.8545 L 26.2461,83.5821 L 26.2461,118.6862 C 24.1448,119.0088 22.5216,120.8192 22.5216,123.0119 C 22.5216,125.2001 24.1448,127.0071 26.2461,127.3365 L 26.2461,133.5244 C 24.1448,133.847 22.5216,135.645 22.5216,137.8422 C 22.5216,140.0304 24.1448,141.8374 26.2461,142.1589 L 26.2461,148.3514 C 24.1448,148.6728 22.5216,150.4753 22.5216,152.668 C 22.5216,154.8653 24.1448,156.6632 26.2461,156.9858 L 26.2461,187.1676 L 16.1904,187.1676 L 16.1904,193.483 L 2.5659,193.483 L 2.5659,12.634 L 207.4369,12.634 L 207.4369,193.483 L 207.437,193.483 z "
   id="path12"
   style="fill:#ed1c24;fill-rule:nonzero" />
  <path
   class="fil2"
   d="M 39.8157,35.1994 C 38.0888,35.1994 36.6834,33.7985 36.6834,32.0749 C 36.6834,30.3481 38.0888,28.9562 39.8157,28.9562 L 47.2884,28.9562 C 48.9995,28.9562 50.4004,30.3481 50.4004,32.0749 C 50.4004,33.7985 48.9995,35.1994 47.2884,35.1994 L 39.8157,35.1994 L 39.8157,35.1994 z M 94.5485,76.0132 L 94.5485,76.9167 C 94.5485,78.2059 93.4983,79.2448 92.2136,79.2448 C 91.644,79.2448 91.2582,79.1207 91.0191,78.8748 C 90.5341,78.3368 90.6096,77.175 90.6931,75.9421 C 90.7371,75.377 90.7732,74.7961 90.7732,74.2074 C 90.7687,73.6344 90.7326,73.0726 90.6931,72.5312 C 90.5972,71.2668 90.5183,70.0881 91.0078,69.5591 C 91.2537,69.3087 91.644,69.1767 92.2136,69.1767 C 93.4983,69.1767 94.5485,70.22 94.5485,71.5127 L 94.5485,72.4128 L 102.3922,72.4128 L 102.3922,65.0585 L 102.0144,65.0506 C 100.7364,65.0394 99.6897,63.9926 99.6897,62.7146 C 99.6897,61.5371 100.1837,61.1468 101.6354,61.1468 C 102.0493,61.1389 102.5118,61.1671 103.0002,61.2032 C 103.5461,61.2472 104.1033,61.29 104.6842,61.29 L 104.7316,61.29 C 105.3091,61.2743 105.8731,61.2472 106.4111,61.1908 C 106.9119,61.1592 107.3857,61.131 107.8199,61.131 C 109.2716,61.131 109.7578,61.5371 109.7578,62.7146 C 109.7578,64.0039 108.7189,65.0585 107.4297,65.0585 L 107.0439,65.0585 L 107.0236,65.4443 L 107.0236,72.4128 L 115.2125,72.4128 L 115.2125,71.5127 C 115.2125,70.22 116.2638,69.1767 117.5485,69.1767 C 118.1091,69.1767 118.4994,69.3087 118.7464,69.5557 C 119.2359,70.0802 119.148,71.2499 119.0611,72.4838 C 119.025,73.0523 118.9889,73.6344 118.9889,74.2107 C 118.9889,74.7961 119.0284,75.3613 119.069,75.8982 C 119.1604,77.1558 119.2472,78.3368 118.7464,78.859 C 118.5152,79.1207 118.117,79.2448 117.5485,79.2448 C 116.2638,79.2448 115.2125,78.2059 115.2125,76.9167 L 115.2125,76.0132 L 107.0236,76.0132 L 107.0236,90.8198 L 102.3922,90.8198 L 102.3922,76.0132 L 94.5485,76.0132 L 94.5485,76.0132 z M 163.798,35.1994 C 162.0711,35.1994 160.6713,33.7985 160.6713,32.0749 C 160.6713,30.3481 162.0711,28.9562 163.798,28.9562 L 171.2718,28.9562 C 172.9817,28.9562 174.3827,30.3481 174.3827,32.0749 C 174.3827,33.7985 172.9817,35.1994 171.2718,35.1994 L 163.798,35.1994 z M 108.6197,92.0888 C 110.342,92.0888 111.7351,93.5055 111.7351,95.2245 C 111.7351,96.9401 110.342,98.3489 108.6197,98.3489 L 101.1458,98.3489 C 99.419,98.3489 98.0192,96.9401 98.0192,95.2245 C 98.0192,93.5055 99.419,92.0888 101.1458,92.0888 L 108.6197,92.0888 z "
   id="path14"
   style="fill:#ffdd00;fill-rule:nonzero" />
  <path
   class="fil3"
   d="M 45.1791,36.4841 L 65.1191,75.13 L 21.3004,75.13 L 42.1788,36.4841 L 45.1791,36.4841 L 45.1791,36.4841 z M 169.1621,36.4841 L 189.1054,75.13 L 145.2867,75.13 L 166.1651,36.4841 L 169.1621,36.4841 z "
   id="path16"
   style="fill:#008fd4;fill-rule:nonzero" />
  <path
   class="fil4"
   d="M 104.887,114.333 L 117.2301,135.8882 C 113.3985,133.9222 109.1563,132.8912 104.887,132.8912 C 100.6492,132.8912 96.5458,133.9301 92.6543,135.983 L 104.887,114.333 L 104.887,114.333 z M 104.887,133.6594 C 109.471,133.6594 114.0268,134.8855 118.0411,137.2011 L 119.2796,137.9208 L 104.8791,112.781 L 90.6093,138.037 L 91.8433,137.3128 C 95.9649,134.8855 100.3503,133.6594 104.887,133.6594 L 104.887,133.6594 z M 41.1362,93.6926 C 41.1362,92.0379 39.7951,90.6889 38.1325,90.6889 C 36.4688,90.6889 35.1242,92.0379 35.1242,93.6926 L 35.1242,111.0654 L 41.1362,111.0654 L 41.1362,93.6926 z M 97.7797,172.0425 C 97.8429,172.0819 99.8292,176.4076 104.8791,176.4076 C 109.9402,176.4076 111.922,172.0819 111.9818,172.0425 C 112.0528,172.0109 116.8004,172.4519 119.3191,168.0867 C 121.8536,163.7137 119.0879,159.838 119.0879,159.767 C 119.0879,159.6948 121.8536,155.8191 119.3191,151.4303 C 116.8004,147.0775 112.0528,147.5264 111.9818,147.4836 C 111.922,147.4475 109.9402,143.1218 104.8791,143.1218 C 99.8292,143.1218 97.8429,147.4475 97.7797,147.4836 C 97.7166,147.5264 92.9645,147.0775 90.4379,151.4303 C 87.9158,155.8191 90.6725,159.6948 90.6725,159.767 C 90.6725,159.838 87.9158,163.7137 90.4379,168.0867 C 92.9645,172.4519 97.7166,172.0109 97.7797,172.0425 z M 176.0021,165.9741 C 176.0021,164.3115 174.661,162.9624 173.0063,162.9624 C 171.3425,162.9624 170.0014,164.3115 170.0014,165.9741 L 170.0014,183.3434 L 176.0145,183.3434 L 176.0021,165.9741 z M 87.7601,169.6275 C 85.4445,165.6199 86.9051,161.9755 87.979,160.1448 C 88.0669,160.0016 88.1188,159.9136 88.1188,159.767 C 88.1188,159.6158 88.0669,159.5278 87.979,159.3891 C 86.9051,157.5584 85.4445,153.9095 87.7601,149.9064 C 90.1435,145.7916 94.282,145.3427 95.9457,145.3427 L 96.1837,145.3427 C 96.2559,145.3427 96.3709,145.3427 96.495,145.275 C 96.6258,145.2028 96.6777,145.1115 96.7567,144.9637 C 97.8034,143.1218 100.2466,140.0346 104.887,140.0346 C 109.5104,140.0346 111.966,143.1218 113.0082,144.9637 C 113.0838,145.1115 113.1436,145.2028 113.2665,145.275 C 113.3985,145.3427 113.5056,145.3427 113.5767,145.3427 L 113.8158,145.3427 C 115.4875,145.3427 119.6169,145.7916 122.0014,149.9064 C 124.3171,153.9095 122.8564,157.5584 121.7905,159.3891 C 121.7025,159.5278 121.6506,159.6158 121.6506,159.767 C 121.6506,159.9136 121.7025,160.0016 121.7905,160.1448 C 122.8564,161.9755 124.3171,165.6199 122.0014,169.6275 C 119.6169,173.7457 115.4875,174.1833 113.8158,174.1833 L 113.5767,174.1833 C 113.5056,174.1833 113.3985,174.1833 113.271,174.2589 C 113.1436,174.3221 113.0838,174.4258 113.0082,174.5612 C 111.9615,176.4076 109.5104,179.4994 104.887,179.4994 C 100.2545,179.4994 97.8034,176.4076 96.7567,174.5612 C 96.6777,174.4258 96.6258,174.3221 96.495,174.2589 C 96.3709,174.1833 96.2559,174.1833 96.1837,174.1833 L 95.9457,174.1833 C 94.282,174.1833 90.1435,173.7457 87.7601,169.6275 L 87.7601,169.6275 z M 104.887,180.5179 C 108.5945,180.5179 111.8419,178.5846 113.8158,175.2098 C 115.6623,175.2098 120.2418,174.7202 122.888,170.1441 C 124.7423,166.9407 124.6904,163.161 122.7492,159.767 C 123.7283,158.0513 125.4822,153.8779 122.888,149.3932 C 120.2418,144.8126 115.6623,144.3197 113.8158,144.3197 C 111.8419,140.9493 108.5945,139.0194 104.887,139.0194 C 101.1704,139.0194 97.923,140.9493 95.9457,144.3197 C 94.0992,144.3197 89.5186,144.8126 86.877,149.3932 C 84.2781,153.8779 86.0332,158.0513 87.0123,159.767 C 85.0745,163.161 85.0147,166.9407 86.877,170.1441 C 89.5186,174.7202 94.0992,175.2098 95.9457,175.2098 C 97.923,178.5846 101.1704,180.5179 104.887,180.5179 L 104.887,180.5179 z M 52.0198,165.9741 C 52.0198,164.3115 50.6742,162.9624 49.0229,162.9624 C 47.3558,162.9624 46.0146,164.3115 46.0146,165.9741 L 46.0146,183.3434 L 52.0277,183.3434 L 52.0198,165.9741 L 52.0198,165.9741 z M 162.1148,162.9624 C 160.451,162.9624 159.111,164.3115 159.111,165.9741 L 159.111,183.3434 L 165.1196,183.3434 L 165.1196,165.9741 C 165.1196,164.3115 163.7785,162.9624 162.1148,162.9624 z M 52.0198,93.6926 C 52.0198,92.0379 50.6742,90.6889 49.0229,90.6889 C 47.3558,90.6889 46.0146,92.0379 46.0146,93.6926 L 46.0146,111.0654 L 52.0277,111.0654 L 52.0198,93.6926 L 52.0198,93.6926 z M 38.1325,162.9624 C 36.4688,162.9624 35.1242,164.3115 35.1242,165.9741 L 35.1242,183.3434 L 41.1362,183.3434 L 41.1362,165.9741 C 41.1362,164.3115 39.7951,162.9624 38.1325,162.9624 z M 176.0025,93.6926 C 176.0025,92.0379 174.6614,90.6889 173.0067,90.6889 C 171.3429,90.6889 170.0018,92.0379 170.0018,93.6926 L 170.0018,111.0654 L 176.0149,111.0654 L 176.0025,93.6926 z M 165.12,93.6926 C 165.12,92.0379 163.7789,90.6889 162.1152,90.6889 C 160.4514,90.6889 159.1114,92.0379 159.1114,93.6926 L 159.1114,111.0654 L 165.12,111.0654 L 165.12,93.6926 z M 206.8892,200.6406 L 195.1224,200.6406 L 195.1224,194.7673 L 207.4261,194.7673 C 207.3979,195.8659 207.2863,197.9154 206.8892,200.6406 z M 35.0322,200.4499 L 17.4778,200.4499 L 17.4778,188.4564 L 35.0322,188.4564 L 35.0322,200.4499 z M 62.4967,187.1672 L 60.5352,187.1672 L 104.8874,103.7483 L 149.2272,187.1672 L 147.2645,187.1672 L 131.0818,158.6999 L 131.0694,160.1132 C 130.8788,174.2792 119.1954,185.8103 105.034,185.8103 C 90.6808,185.8103 79.0065,174.1359 78.9907,159.7828 L 78.9907,158.3378 L 62.4967,187.1672 L 62.4967,187.1672 z M 49.2308,188.4564 L 66.793,188.4564 L 66.793,200.4499 L 49.2308,200.4499 L 49.2308,188.4564 z M 47.9607,200.6406 L 36.309,200.6406 L 36.309,194.7685 L 47.9607,194.7685 L 47.9607,200.6406 z M 36.3101,193.4826 L 36.3101,187.1672 L 27.5324,187.1672 L 27.5324,157.0531 L 58.8635,157.0531 L 58.8635,187.1672 L 47.9607,187.1672 L 47.9607,193.4826 L 36.3101,193.4826 z M 79.7261,200.6406 L 68.0744,200.6406 L 68.0744,194.7685 L 79.7261,194.7685 L 79.7261,200.6406 z M 98.5562,200.4499 L 80.9996,200.4499 L 80.9996,188.4564 L 98.5562,188.4564 L 98.5562,200.4499 z M 111.4881,200.6406 L 99.8432,200.6406 L 99.8432,194.7685 L 111.4881,194.7685 L 111.4881,200.6406 L 111.4881,200.6406 z M 130.3216,200.4499 L 112.7639,200.4499 L 112.7639,188.4564 L 130.3216,188.4564 L 130.3216,200.4499 z M 143.2502,200.6406 L 131.6052,200.6406 L 131.6052,194.7685 L 143.2502,194.7685 L 143.2502,200.6406 z M 131.6029,193.4826 L 131.6029,187.1672 L 111.4881,187.1672 L 111.4881,193.4826 L 99.8409,193.4826 L 99.8409,187.1672 L 79.7261,187.1672 L 79.7261,193.4826 L 68.0721,193.4826 L 68.0721,187.1672 L 63.3765,187.1672 L 78.2587,161.16 C 78.9907,175.3056 90.7248,186.5784 105.034,186.5784 C 119.1605,186.5784 130.8867,175.4331 131.7777,161.4814 L 146.3859,187.1672 L 143.2502,187.1672 L 143.2502,193.4826 L 131.6029,193.4826 L 131.6029,193.4826 z M 162.0915,200.4499 L 144.5292,200.4499 L 144.5292,188.4564 L 162.0915,188.4564 L 162.0915,200.4499 z M 176.2935,188.4564 L 193.8557,188.4564 L 193.8557,200.4499 L 176.2935,200.4499 L 176.2935,188.4564 z M 175.0155,200.6406 L 163.3615,200.6406 L 163.3615,194.7685 L 175.0155,194.7685 L 175.0155,200.6406 z M 163.3604,193.4826 L 163.3604,187.1672 L 151.5147,187.1672 L 151.5147,157.0531 L 182.8503,157.0531 L 182.8503,187.1672 L 175.0155,187.1672 L 175.0155,193.4826 L 163.3604,193.4826 z M 183.9252,149.5601 C 185.6397,149.5601 187.0406,150.9531 187.0406,152.6676 C 187.0406,154.3787 185.6397,155.7751 183.9252,155.7751 L 150.8977,155.7751 C 149.1866,155.7751 147.7902,154.3787 147.7902,152.6676 C 147.7902,150.9531 149.1866,149.5601 150.8977,149.5601 L 183.9252,149.5601 z M 182.8503,148.2833 L 151.5147,148.2833 L 151.5147,142.2262 L 182.8503,142.2262 L 182.8503,148.2833 z M 183.9252,134.7264 C 185.6397,134.7264 187.0406,136.1262 187.0406,137.8418 C 187.0406,139.5563 185.6397,140.9414 183.9252,140.9414 L 150.8977,140.9414 C 149.1866,140.9414 147.7902,139.5563 147.7902,137.8418 C 147.7902,136.1262 149.1866,134.7264 150.8977,134.7264 L 183.9252,134.7264 z M 182.8503,133.4563 L 151.5147,133.4563 L 151.5147,127.4004 L 182.8503,127.4004 L 182.8503,133.4563 z M 183.9252,119.904 C 185.6397,119.904 187.0406,121.288 187.0406,123.0115 C 187.0406,124.7226 185.6397,126.1111 183.9252,126.1111 L 150.8977,126.1111 C 149.1866,126.1111 147.7902,124.7226 147.7902,123.0115 C 147.7902,121.288 149.1866,119.904 150.8977,119.904 L 183.9252,119.904 z M 182.8503,118.6181 L 151.5147,118.6181 L 151.5147,83.9877 L 182.8503,83.9877 L 182.8503,118.6181 z M 188.7393,76.4068 L 183.2045,82.7098 L 151.165,82.7098 L 145.6256,76.4068 L 188.7393,76.4068 z M 106.1484,99.6257 L 150.2333,182.5471 L 150.2333,186.3156 L 104.8874,101.0187 L 60.1494,185.1617 L 60.1494,181.3977 L 103.6297,99.6257 L 106.1484,99.6257 L 106.1484,99.6257 z M 59.9418,149.5601 C 61.653,149.5601 63.0539,150.9531 63.0539,152.6676 C 63.0539,154.3787 61.653,155.7751 59.9418,155.7751 L 26.9154,155.7751 C 25.1998,155.7751 23.8079,154.3787 23.8079,152.6676 C 23.8079,150.9531 25.1998,149.5601 26.9154,149.5601 L 59.9418,149.5601 z M 58.8635,148.2833 L 27.5313,148.2833 L 27.5313,142.2262 L 58.8635,142.2262 L 58.8635,148.2833 z M 59.9418,134.7264 C 61.653,134.7264 63.0539,136.1262 63.0539,137.8418 C 63.0539,139.5563 61.653,140.9414 59.9418,140.9414 L 26.9154,140.9414 C 25.1998,140.9414 23.8079,139.5563 23.8079,137.8418 C 23.8079,136.1262 25.1998,134.7264 26.9154,134.7264 L 59.9418,134.7264 z M 58.8635,133.4563 L 27.5313,133.4563 L 27.5313,127.4004 L 58.8635,127.4004 L 58.8635,133.4563 z M 59.9418,119.904 C 61.653,119.904 63.0539,121.288 63.0539,123.0115 C 63.0539,124.7226 61.653,126.1111 59.9418,126.1111 L 26.9154,126.1111 C 25.1998,126.1111 23.8079,124.7226 23.8079,123.0115 C 23.8079,121.288 25.1998,119.904 26.9154,119.904 L 59.9418,119.904 z M 58.8635,118.6181 L 27.5313,118.6181 L 27.5313,83.9877 L 58.8635,83.9877 L 58.8635,118.6181 z M 64.7571,76.4068 L 59.2222,82.7098 L 27.1816,82.7098 L 21.6422,76.4068 L 64.7571,76.4068 z M 205.5751,207.2778 L 113.1834,207.2778 C 110.5733,206.53 107.8233,206.1239 104.9741,206.1239 C 102.1294,206.1239 99.3761,206.53 96.7649,207.2778 L 4.4284,207.2778 C 4.0111,205.6265 3.6885,204.0756 3.4381,202.6589 L 206.5621,202.6589 C 206.3117,204.079 205.9891,205.6265 205.5752,207.2778 L 205.5751,207.2778 z M 202.5082,216.5417 C 201.3701,219.2793 199.9048,222.2604 198.0268,225.3476 L 192.9296,225.3476 L 192.9296,208.5716 L 205.2333,208.5716 C 204.5565,211.0542 203.6699,213.741 202.5082,216.5417 z M 182.707,242.7249 L 182.707,226.629 L 197.2316,226.629 C 193.8049,231.9766 189.1216,237.5758 182.707,242.7249 z M 171.8324,208.5716 L 191.6471,208.5716 L 191.6471,225.3499 L 171.8324,225.3499 L 171.8324,208.5716 z M 181.4335,243.7231 C 180.953,244.0897 180.4635,244.4518 179.9694,244.8138 L 161.6774,244.8138 L 161.6774,226.629 L 181.4335,226.629 L 181.4335,243.7231 z M 172.2655,249.7204 L 172.2655,246.1076 L 178.1354,246.1076 C 176.3013,247.3529 174.3466,248.562 172.2655,249.7204 z M 170.9853,250.4209 C 169.0903,251.4315 167.0972,252.4016 164.9958,253.3209 C 160.4085,255.3264 155.8087,256.9743 151.2642,258.4858 L 151.2642,246.1076 L 170.9853,246.1076 L 170.9853,250.4209 L 170.9853,250.4209 z M 149.9862,258.9076 C 148.2514,259.4806 146.529,260.0344 144.8179,260.5837 C 141.4589,261.6576 138.1404,262.7201 134.8942,263.8661 L 134.8942,246.1076 L 149.9862,246.1076 L 149.9862,258.9076 L 149.9862,258.9076 z M 139.2864,226.629 L 139.2864,244.8138 L 134.8942,244.8138 L 134.8942,236.044 C 134.8942,232.7526 134.3528,229.5899 133.3692,226.629 L 139.2864,226.629 z M 150.8818,208.5716 L 170.5566,208.5716 L 170.5566,225.3499 L 150.8818,225.3499 L 150.8818,208.5716 z M 160.3927,244.8138 L 140.5565,244.8138 L 140.5565,226.6279 L 160.3927,226.6279 L 160.3927,244.8138 z M 129.7609,219.3357 L 129.7609,208.5716 L 149.6004,208.5716 L 149.6004,225.3476 L 132.9124,225.3476 C 132.0878,223.2147 131.0219,221.2013 129.7609,219.3357 z M 116.812,208.5716 L 128.4829,208.5716 L 128.4829,217.5682 C 125.4194,213.6767 121.4118,210.5613 116.812,208.5716 z M 81.5127,217.5129 L 81.5127,208.5716 L 93.1408,208.5716 C 88.5568,210.5489 84.5695,213.6485 81.5127,217.5129 z M 128.8258,266.1626 L 128.8258,237.1099 C 128.8258,223.9625 118.1294,213.2594 104.9741,213.2594 C 91.8267,213.2594 81.1269,223.9625 81.1269,237.1099 L 81.1269,266.1423 C 79.9449,265.6607 78.7594,265.1948 77.5536,264.7493 L 77.6179,264.7493 L 77.6179,236.044 C 77.6179,220.9633 89.8889,208.6867 104.9741,208.6867 C 120.0639,208.6867 132.3236,220.9633 132.3236,236.044 L 132.3236,264.7493 L 132.442,264.7493 C 131.225,265.2027 130.0158,265.6731 128.8258,266.1626 L 128.8258,266.1626 z M 126.2665,267.2488 C 125.328,267.6707 124.3963,268.1038 123.4737,268.5572 L 123.4737,239.156 L 123.4534,239.156 C 123.4455,234.2415 120.1112,230.1189 115.5825,228.8928 C 115.3197,223.2508 110.6725,218.7502 104.9662,218.7502 C 99.2565,218.7502 94.6127,223.2508 94.3466,228.8849 C 89.8178,230.111 86.4757,234.2415 86.4757,239.156 L 86.4757,268.5302 C 85.5564,268.0835 84.6292,267.6504 83.6897,267.233 L 83.6897,237.1099 C 83.6897,225.3713 93.2355,215.8221 104.9741,215.8221 C 116.7093,215.8221 126.2665,225.3713 126.2665,237.1099 L 126.2665,267.2488 L 126.2665,267.2488 z M 60.3557,225.3476 L 60.3557,208.5716 L 80.2314,208.5716 L 80.2314,219.268 C 78.9511,221.1539 77.8683,223.1876 77.0404,225.3476 L 60.3557,225.3476 L 60.3557,225.3476 z M 75.0552,236.044 L 75.0552,244.8138 L 70.9765,244.8138 L 70.9765,226.629 L 76.5836,226.629 C 75.5966,229.5899 75.0552,232.7526 75.0552,236.044 z M 75.0552,263.8458 C 71.8236,262.7077 68.5176,261.6497 65.1743,260.5837 C 63.699,260.11 62.2067,259.6284 60.7099,259.1388 L 60.7099,246.1076 L 75.0552,246.1076 L 75.0552,263.8458 z M 59.433,258.717 C 54.6697,257.1412 49.8274,255.4301 45.0122,253.3209 C 43.0868,252.4817 41.2561,251.594 39.501,250.6747 L 39.501,246.1076 L 59.433,246.1076 L 59.433,258.717 L 59.433,258.717 z M 38.2242,249.9866 C 35.9637,248.7493 33.8466,247.4521 31.8693,246.1076 L 38.2242,246.1076 L 38.2242,249.9866 z M 69.6906,244.8138 L 49.8996,244.8138 L 49.8996,226.6279 L 69.6906,226.6279 L 69.6906,244.8138 z M 59.0665,225.3476 L 39.4356,225.3476 L 39.4356,208.5693 L 59.0665,208.5693 L 59.0665,225.3476 z M 28.7212,243.8393 L 28.7212,226.629 L 48.6092,226.629 L 48.6092,244.8138 L 30.0386,244.8138 C 29.5886,244.4912 29.1509,244.1653 28.7212,243.8393 z M 19.1482,208.5716 L 38.1542,208.5716 L 38.1542,225.3499 L 19.1482,225.3499 L 19.1482,208.5716 z M 27.4443,242.8399 C 20.9586,237.6592 16.2268,232.0172 12.773,226.629 L 27.4443,226.629 L 27.4443,242.8399 z M 7.4931,216.5417 C 6.3313,213.741 5.447,211.0542 4.7668,208.5716 L 17.8669,208.5716 L 17.8669,225.3476 L 11.9778,225.3476 C 10.0987,222.2604 8.6312,219.2793 7.4931,216.5417 z M 2.5741,194.7677 L 16.1907,194.7677 L 16.1907,200.641 L 3.1076,200.641 C 2.714,197.9034 2.6023,195.8506 2.5741,194.7677 L 2.5741,194.7677 z M 104.8791,137.567 C 117.123,137.567 127.0828,147.5268 127.0828,159.7674 C 127.0828,172.0113 117.123,181.9711 104.8791,181.9711 C 92.6385,181.9711 82.6787,172.0113 82.6787,159.7674 C 82.6787,147.5268 92.6385,137.567 104.8791,137.567 z M 104.8791,183.5029 C 117.9701,183.5029 128.6146,172.8584 128.6146,159.7674 C 128.6146,146.6718 117.9701,136.0273 104.8791,136.0273 C 91.7914,136.0273 81.1391,146.6718 81.1391,159.7674 C 81.1391,172.8505 91.7914,183.5029 104.8791,183.5029 z "
   id="path18"
   style="fill:#ffffff;fill-rule:nonzero" />
 </g>
</svg>