<?xml version="1.0" encoding="UTF-8"?>
<!DOCTYPE svg PUBLIC "-//W3C//DTD SVG 1.0//EN" "http://www.w3.org/TR/2001/REC-SVG-20010904/DTD/svg10.dtd">
<svg xmlns="http://www.w3.org/2000/svg" xml:space="preserve" width="180.211mm" height="39.4329mm" version="1.0" style="shape-rendering:geometricPrecision; text-rendering:geometricPrecision; image-rendering:optimizeQuality; fill-rule:evenodd; clip-rule:evenodd"
viewBox="0 0 1801.198 394.13"
 xmlns:xlink="http://www.w3.org/1999/xlink">
 <defs>
  <style type="text/css">
   <![CDATA[
    .fil1 {fill:#094B82;fill-rule:nonzero}
    .fil0 {fill:#BE0005;fill-rule:nonzero}
   ]]>
  </style>
 </defs>
 <g id="Warstwa_x0020_1">
  <metadata id="CorelCorpID_0Corel-Layer"/>
  <path class="fil0" d="M415.921 152.023c19.414,19.42 29.131,48.557 29.131,87.392l0 148.3c0,1.377 -1.121,2.5 -2.5,2.5l-71.384 0c-1.375,0 -2.496,-1.122 -2.496,-2.5l0 -136.548c0,-20.889 -4.331,-36.477 -12.972,-46.758 -8.654,-10.282 -20.977,-15.423 -36.968,-15.423 -17.954,0 -32.153,5.801 -42.597,17.38 -10.448,11.589 -15.666,28.81 -15.666,51.656l0 129.694c0,1.377 -1.122,2.5 -2.499,2.5l-71.38 0c-1.375,0 -2.498,-1.122 -2.498,-2.5l0 -136.548c0,-41.448 -16.647,-62.182 -49.939,-62.182 -17.627,0 -31.668,5.801 -42.108,17.38 -10.449,11.589 -15.666,28.81 -15.666,51.656l0 129.694c0,1.377 -1.122,2.5 -2.499,2.5l-71.382 0c-1.377,0 -2.5,-1.122 -2.5,-2.5l0 -258.408c0,-1.377 1.122,-2.5 2.5,-2.5l67.952 0c1.375,0 2.499,1.122 2.499,2.5l0 21.561c0,1.03 0.588,1.91 1.539,2.307 0.952,0.396 1.99,0.192 2.722,-0.536 8.948,-8.906 19.525,-15.889 31.724,-20.938 14.204,-5.872 29.784,-8.811 46.758,-8.811 18.608,0 35.413,3.671 50.429,11.014 14.013,6.857 25.471,16.632 34.368,29.313 0.46,0.658 1.136,1.027 1.939,1.061 0.802,0.033 1.505,-0.277 2.022,-0.893 10.424,-12.464 23.35,-22.204 38.786,-29.234 16.477,-7.507 34.515,-11.262 54.102,-11.262 32.962,0 59.157,9.715 78.582,29.132zm249.69 159.61c12.563,-13.218 18.85,-30.922 18.85,-53.118 0,-22.197 -6.287,-39.908 -18.85,-53.127 -12.567,-13.218 -28.642,-19.83 -48.229,-19.83 -19.58,0 -35.736,6.612 -48.469,19.83 -12.729,13.219 -19.093,30.93 -19.093,53.127 0,22.196 6.365,39.9 19.093,53.118 12.733,13.219 28.888,19.829 48.469,19.829 19.587,0 35.662,-6.61 48.229,-19.829zm-122.892 65.118c-22.034,-11.582 -39.251,-27.665 -51.652,-48.23 -12.408,-20.56 -18.604,-43.894 -18.604,-70.007 0,-26.114 6.196,-49.457 18.604,-70.017 12.401,-20.564 29.618,-36.639 51.652,-48.229 22.034,-11.579 46.917,-17.376 74.663,-17.376 27.739,0 52.552,5.797 74.424,17.376 21.861,11.59 38.997,27.665 51.409,48.229 12.397,20.56 18.603,43.903 18.603,70.017 0,26.113 -6.206,49.447 -18.603,70.007 -12.412,20.565 -29.548,36.648 -51.409,48.23 -21.872,11.59 -46.684,17.376 -74.424,17.376 -27.746,0 -52.629,-5.786 -74.663,-17.376z"/>
  <path class="fil1" d="M978.953 311.633c12.564,-13.218 18.854,-30.922 18.854,-53.118 0,-22.197 -6.29,-39.908 -18.854,-53.127 -12.567,-13.218 -28.642,-19.83 -48.225,-19.83 -19.58,0 -35.662,6.612 -48.226,19.83 -12.57,13.219 -18.85,30.93 -18.85,53.127 0,22.196 6.28,39.9 18.85,53.118 12.564,13.219 28.646,19.829 48.226,19.829 19.583,0 35.658,-6.61 48.225,-19.829zm821.163 66.995c-7.203,4.984 -15.891,8.769 -26.06,11.341 -10.938,2.767 -22.447,4.161 -34.517,4.161 -31.335,0 -55.573,-7.994 -72.706,-23.991 -17.136,-15.987 -25.704,-39.488 -25.704,-70.502l0 -105.704c0,-1.376 -1.121,-2.499 -2.5,-2.499l-35.638 0c-1.378,0 -2.5,-1.122 -2.5,-2.499l0 -53.756c0,-1.376 1.121,-2.499 2.5,-2.499l35.638 0c1.378,0 2.5,-1.122 2.5,-2.499l0 -52.304c0,-1.296 0.981,-2.371 2.271,-2.49l71.38 -6.59c0.723,-0.068 1.371,0.149 1.911,0.64 0.54,0.492 0.815,1.118 0.815,1.847l0 58.896c0,1.376 1.124,2.499 2.5,2.499l60.608 0c1.379,0 2.5,1.122 2.5,2.499l0 53.756c0,1.376 -1.12,2.499 -2.5,2.499l-60.608 0c-1.375,0 -2.5,1.122 -2.5,2.499l0 104.727c0,11.099 2.857,19.667 8.572,25.704 5.705,6.04 13.783,9.055 24.235,9.055 10.885,0 20.31,-2.648 28.282,-7.952 0.656,-0.435 1.396,-0.539 2.144,-0.3 0.751,0.239 1.293,0.755 1.576,1.488l18.716 49.025c0.416,1.089 0.046,2.284 -0.914,2.947zm-374.898 -183.278c-11.057,9.214 -18.067,21.615 -21.029,37.185 -0.144,0.757 0.039,1.465 0.529,2.06 0.491,0.593 1.153,0.906 1.926,0.906l123.801 0c0.773,0 1.435,-0.314 1.929,-0.911 0.491,-0.595 0.674,-1.306 0.522,-2.066 -2.973,-15.264 -9.975,-27.567 -21.018,-36.93 -11.748,-9.951 -26.114,-14.929 -43.084,-14.929 -17.305,0 -31.822,4.894 -43.574,14.686zm176.392 84.702l-193.778 0c-0.805,0 -1.492,0.34 -1.982,0.976 -0.487,0.637 -0.639,1.389 -0.434,2.167 3.953,14.843 12.182,26.69 24.7,35.536 13.381,9.472 30.024,14.201 49.939,14.201 13.705,0 25.867,-2.039 36.473,-6.121 9.905,-3.808 19.178,-9.686 27.806,-17.629 1.012,-0.931 2.599,-0.866 3.53,0.145l37.386 40.542c0.882,0.955 0.889,2.414 0.014,3.375 -24.76,27.258 -60.482,40.884 -107.169,40.884 -29.703,0 -55.983,-5.788 -78.824,-17.379 -22.851,-11.582 -40.479,-27.661 -52.875,-48.225 -12.409,-20.564 -18.608,-43.899 -18.608,-70.012 0,-25.782 6.122,-49.04 18.361,-69.769 12.242,-20.727 29.046,-36.883 50.429,-48.472 21.374,-11.58 45.291,-17.379 71.729,-17.379 25.779,0 49.117,5.547 70.013,16.645 20.884,11.1 37.284,27.014 49.202,47.735 11.91,20.733 17.873,44.797 17.873,72.217 0,0.919 -0.434,7.003 -1.29,18.256 -0.099,1.305 -1.181,2.308 -2.493,2.308zm-374.857 -246.284l71.381 -6.587c0.727,-0.067 1.375,0.152 1.914,0.642 0.54,0.49 0.815,1.114 0.815,1.844l0 358.047c0,1.376 -1.121,2.499 -2.5,2.499l-71.38 0c-1.379,0 -2.5,-1.122 -2.5,-2.499l0 -351.457c0,-1.293 0.98,-2.369 2.27,-2.489zm-39.477 13.722c0,-0.222 -0.007,-0.439 -0.01,-0.66l0.007 -0.809c0,-6.412 -1.311,-12.244 -3.939,-17.49 -7.319,-16.791 -24.061,-28.533 -43.553,-28.533 -24.657,0 -44.924,18.801 -47.258,42.848 -0.152,1.513 -0.23,3.061 -0.23,4.645 0,1.597 0.078,3.157 0.233,4.687l0.028 0.294 0.064 0.538 0.003 0.04c2.754,23.608 22.818,41.932 47.16,41.932 26.234,0 47.495,-21.266 47.495,-47.492zm-83.181 79.314l71.38 0c1.375,0 2.5,1.123 2.5,2.499l0 258.411c0,1.376 -1.124,2.499 -2.5,2.499l-71.38 0c-1.379,0 -2.501,-1.122 -2.501,-2.499l0 -258.411c0,-1.375 1.121,-2.499 2.501,-2.499zm-93.312 12.977c20.073,11.259 35.813,27.094 47.248,47.488 11.417,20.406 17.129,44.15 17.129,71.244 0,27.093 -5.712,50.84 -17.129,71.236 -11.435,20.401 -27.175,36.229 -47.248,47.488 -20.074,11.26 -42.355,16.888 -66.835,16.888 -33.571,0 -59.72,-9.802 -78.436,-29.424 -0.72,-0.755 -1.77,-0.983 -2.74,-0.595 -0.967,0.388 -1.569,1.278 -1.569,2.319l0 21.287c0,1.376 -1.121,2.499 -2.496,2.499l-67.954 0c-1.375,0 -2.5,-1.122 -2.5,-2.499l0 -351.453c0,-1.297 0.981,-2.37 2.271,-2.49l71.38 -6.59c0.727,-0.067 1.379,0.152 1.915,0.642 0.54,0.49 0.815,1.114 0.815,1.844l0 118.868c0,1.025 0.582,1.902 1.526,2.302 0.946,0.4 1.978,0.206 2.716,-0.509 18.832,-18.291 43.856,-27.436 75.072,-27.436 24.481,0 46.761,5.629 66.835,16.889z"/>
 </g>
</svg>
