<?xml version="1.0" encoding="UTF-8"?>
<svg width="789px" height="412px" viewBox="0 0 789 412" version="1.1" xmlns="http://www.w3.org/2000/svg" xmlns:xlink="http://www.w3.org/1999/xlink">
    <title>svg/mPay Logo z toba 2</title>
    <defs>
        <circle id="path-1" cx="34" cy="34" r="34"></circle>
        <filter x="-35.1%" y="-35.2%" width="170.2%" height="170.3%" filterUnits="objectBoundingBox" id="filter-3">
            <feGaussianBlur stdDeviation="8" in="SourceGraphic"></feGaussianBlur>
        </filter>
        <filter x="-35.1%" y="-35.2%" width="170.2%" height="170.3%" filterUnits="objectBoundingBox" id="filter-4">
            <feGaussianBlur stdDeviation="8" in="SourceGraphic"></feGaussianBlur>
        </filter>
        <filter x="-35.1%" y="-35.2%" width="170.2%" height="170.3%" filterUnits="objectBoundingBox" id="filter-5">
            <feGaussianBlur stdDeviation="8" in="SourceGraphic"></feGaussianBlur>
        </filter>
    </defs>
    <g id="Page-1" stroke="none" stroke-width="1" fill="none" fill-rule="evenodd">
        <g id="mPay_logo_icon_colorLight" transform="translate(-118, -306)">
            <g id="mPay-Logo-z-toba" transform="translate(118, 306)">
                <g id="Group" transform="translate(557.5124, 54.4688)" fill="#55256A" fill-rule="nonzero">
                    <g id="Path">
                        <path d="M83.6761339,77.7685515 C82.7921417,79.6013779 82.5827751,80.0122077 81.3881541,81.2391639 C80.1196389,82.5421997 77.9260794,81.9321797 77.4649255,80.1588338 C76.6780904,77.1308663 76.0130436,74.5164951 75.5245216,72.3018876 C74.7458969,69.1701752 74.1424285,66.5641036 73.5991702,64.6040168 C73.0997009,62.570617 72.6713889,60.9203817 72.3073921,59.5467994 C71.9420269,58.167684 71.6163456,56.7263217 71.3522427,55.2240957 L58.2880422,1.80516106 C58.0294129,0.745579931 57.0934211,0 56.0192201,0 L2.33927291,0 C0.709497818,0 -0.420807993,1.65715168 0.149818548,3.21055848 L40.3659899,112.795592 C42.4897606,118.580407 42.9372303,124.863198 41.6563995,130.898384 L26.2207463,203.653982 C25.9060122,205.134076 27.0157919,206.532557 28.5046209,206.532557 L76.9339829,206.532557 C78.0396573,206.532557 78.9934384,205.745479 79.2219627,204.645783 L94.3291977,131.728343 C95.7400274,124.919912 98.7614744,118.563808 103.130804,113.211955 C103.166383,113.167691 103.200593,113.12066 103.232066,113.073629 L195.284938,3.70576741 C196.329034,2.12607858 195.216518,0 193.345903,0 L123.477677,0.00276653035"></path>
                    </g>
                </g>
                <g id="Group" transform="translate(376.6737, 191.5036)" fill="#55256A" fill-rule="nonzero">
                    <g id="Path">
                        <path d="M38.3441878,3.53265724 L0,69.4964238 L54.7295169,69.4964238 C54.7295169,69.4964238 54.3066785,69.0828275 54.1972058,68.4382259 C54.0973119,67.8420386 54.2943628,67.5238876 54.5009926,67.1158244 L85.2190372,6.541259 C72.5462017,-1.56744147 56.3264502,-1.61308922 38.3441878,3.53265724"></path>
                    </g>
                </g>
                <g id="Group" transform="translate(328.2156, 54.4592)" fill="#55256A" fill-rule="nonzero">
                    <g id="Shape">
                        <path d="M152.759599,105.603997 L183.819746,45.0515636 L188.046761,110.48554 C177.01328,106.454705 165.099911,105.074206 152.759599,105.603997 M185.810781,0 C174.366777,0 163.782133,6.18457861 158.017026,16.2422997 L135.103018,56.2103637 L134.825231,56.6986564 C134.818389,56.712489 134.811547,56.7249384 134.804705,56.738771 C134.75681,56.8245335 134.723969,56.915829 134.676074,56.9960584 C134.485865,57.36954 134.276499,57.734722 134.079448,58.1026705 C133.220087,59.6823593 132.304622,61.2274665 131.357683,62.7490582 L130.951265,63.4503737 L100.141537,117.197142 C46.9282173,136.799393 0,173.962195 0,173.962195 C183.819746,45.0515636 194.337337,206.532557 194.337337,206.532557 L248.739804,206.532557 C248.739804,206.529791 247.156555,206.484143 246.923926,204.239103 C246.876031,203.875305 246.424456,200.664746 246.408035,200.543019 C246.34372,200.061643 246.093301,198.195618 246.057723,197.930031 C245.986565,197.40854 225.803901,47.2205234 220.045637,4.37526776 C219.951216,3.66841925 219.859533,2.99061931 219.773323,2.34325121 C219.661114,1.51190884 219.813007,0.529790563 220.813314,0 L185.810781,0 Z"></path>
                    </g>
                </g>
                <g id="Group" transform="translate(0, 54.455)" fill="#55256A" fill-rule="nonzero">
                    <g id="Path">
                        <path d="M199.144558,0.00276653035 L151.902975,98.3888855 C150.644039,100.880146 149.194894,103.97866 147.550066,107.533652 C145.923028,111.228353 144.331568,115.051698 142.726424,119.035502 C141.063807,123.034521 139.491505,126.893831 137.983519,130.679828 C136.486479,134.424327 135.226175,137.706815 134.279236,140.411098 C134.279236,137.93367 134.312078,134.889104 134.437971,131.280165 C134.555654,127.631111 134.626812,124.038772 134.626812,120.519745 L134.626812,109.656964 C134.626812,106.137937 134.484497,103.039423 134.279236,100.279809 L128.65918,0.00276653035 L89.0410035,0.00276653035 C75.096916,0.00276653035 62.7429198,9.14753262 58.4529577,22.644051 L0,206.53394 L51.7422801,206.53394 L52.2677491,204.594603 L79.8808738,102.527615 C80.396764,100.503898 80.8948649,98.3888855 81.4066498,96.1383131 C81.8979086,93.873908 82.4096936,91.7851776 82.8900051,89.7351786 C84.1462046,83.9960114 85.5282976,78.1586323 87.0472316,72.3032708 C88.5155344,66.3953452 89.9099432,60.588398 91.1593006,54.8021998 L91.1593006,64.9650491 C91.1593006,69.2075234 91.2003528,73.6989854 91.3768776,78.2817429 C91.4603505,82.9364302 91.5862442,87.4790731 91.7107694,92.0065 C91.836663,96.5297771 92.0255034,99.9934731 92.2567646,102.524848 L99.0276522,206.53394 L144.052413,206.53394 L196.145005,99.1427651 C197.613308,96.1369298 198.93656,93.3773158 200.035392,90.8611564 C201.199908,88.3837285 202.494423,85.6075153 203.954515,82.616896 C205.51587,79.6276599 207.119645,76.2995239 208.85342,72.638021 C210.606351,69.0442981 212.845069,64.7409601 215.606518,59.7155577 C214.105373,68.2309381 212.942226,75.1334314 212.048654,80.3690901 C211.182452,85.6075153 210.499616,89.6079182 210.006988,92.3827481 C209.454151,95.1755605 209.140785,97.0581844 208.85342,98.203528 C208.639948,99.3557879 208.516791,99.9934731 208.516791,100.278426 L192.732193,206.53394 L243.413957,206.53394 C243.413957,206.521491 242.857014,206.114811 242.434176,205.352632 C242.150915,204.842207 242.12081,204.045446 242.208388,203.139408 C242.30144,202.160056 242.476596,200.543019 242.477965,200.527803 C242.484807,200.461406 243.030802,195.185633 243.041749,195.077738 C243.080065,194.70979 261.585059,16.0361932 263.244939,0 L199.144558,0 L199.144558,0.00276653035 Z"></path>
                    </g>
                </g>
                <g id="Group" transform="translate(249.8809, 0)" fill="#55256A" fill-rule="nonzero">
                    <g id="Shape">
                        <path d="M156.666589,91.6330184 C154.140506,98.6434063 150.875483,104.518134 146.879728,109.259967 C143.425864,113.541172 138.766432,116.76418 132.880905,118.886109 C126.935168,120.97069 118.908081,122.073152 108.675118,122.073152 L82.4509288,122.073152 L99.3083589,42.4122936 L131.539864,42.4122936 C141.313041,42.4122936 148.519082,44.798426 153.274304,49.5582415 C158.048682,54.3028411 160.377715,61.0725408 160.377715,69.8355257 C160.377715,77.3563385 159.144778,84.5963484 156.666589,91.6330184 M201.996505,117.209592 L203.878067,113.924337 L205.462685,111.157806 C206.276888,109.598867 207.041829,108.005345 207.767086,106.392458 C207.942242,106.013443 208.139293,105.651028 208.300765,105.267863 C209.209389,103.179133 210.041381,101.036455 210.806322,98.8578124 C211.003373,98.3058896 211.164845,97.7359844 211.34958,97.1799118 C211.896944,95.5324429 212.419676,93.8642251 212.886304,92.1586592 C213.097039,91.3964801 213.279037,90.613552 213.469246,89.8375402 C213.855137,88.2979661 214.21366,86.7459425 214.539342,85.1662537 C214.707656,84.3127791 214.870497,83.4482384 215.026495,82.5795478 C215.311124,81.0164582 215.554701,79.4312363 215.77091,77.8307985 C215.892698,76.9455088 216.014487,76.0643688 216.117117,75.1652465 C216.314168,73.4513809 216.461956,71.7001672 216.590587,69.9392706 C216.652165,69.1383601 216.727428,68.355432 216.773954,67.5489884 C216.916268,64.9761152 216.997004,62.3658938 216.997004,59.7003418 C216.997004,49.4503468 214.72134,40.1824701 210.089276,31.9340599 C205.443527,23.6704337 199.022952,17.0293776 190.787867,12.0330238 C184.286556,7.76288418 175.832526,4.70033507 165.491459,2.77621321 C155.116182,0.968285624 141.083148,0 123.297937,0 L64.9229782,0 C59.1797658,0 54.2165464,4.07371595 53.0013993,9.7838346 L0.0426035923,258.723152 C-0.206446841,259.890628 0.667966493,260.991707 1.84206139,260.991707 L52.8207693,260.991707 L73.0773273,164.839561 L100.791714,164.839561 C111.316148,164.839561 121.610688,164.116114 131.743757,162.588989 C141.861773,161.104745 150.206331,158.84034 156.667958,155.830355 C176.145891,146.843281 191.106706,134.229286 201.449141,118.141912 C201.564088,117.959321 201.659876,117.762898 201.781665,117.578923 C201.854191,117.457196 201.915769,117.328552 201.996505,117.209592"></path>
                    </g>
                </g>
                <g id="Group" transform="translate(145.9039, 347.2881)" fill="#55256A" fill-rule="nonzero">
                    <g id="Path">
                        <path d="M2.02935051,46.0212324 C0.675994033,44.8413073 6.0769566e-16,43.3335482 6.0769566e-16,41.4979553 C6.0769566e-16,40.5808505 0.207998164,39.6789616 0.628099719,38.7936719 C1.04546446,37.9083822 1.54630214,37.1060884 2.12650754,36.384024 L24.5519938,8.25947637 L1.64345918,8.25947637 C1.38482988,7.8016156 1.12620058,7.21234463 0.868939698,6.49028021 C0.611678811,5.76959905 0.483048368,4.98252117 0.483048368,4.13042982 C0.483048368,2.6890675 0.821045384,1.63916924 1.49840783,0.983501541 C2.17440186,0.329217112 3.05976246,0 4.15585805,0 L34.8957972,0 C36.3121005,1.11491173 37.0223048,2.65448588 37.0223048,4.62148896 C37.0223048,5.53997704 36.8293591,6.40866757 36.4420994,7.22756055 C36.056208,8.0478368 35.5389494,8.8501306 34.8957972,9.63720849 L12.5660996,37.8599679 L36.8293591,37.8599679 C37.0852516,38.2528152 37.32746,38.8102711 37.5546159,39.5309522 C37.7790349,40.2530167 37.8926129,41.0400945 37.8926129,41.8908026 C37.8926129,43.3335482 37.5546159,44.3834465 36.8772534,45.0377309 C36.2012594,45.6947819 35.3145304,46.0212324 34.2184348,46.0212324 L2.02935051,46.0212324 Z"></path>
                    </g>
                </g>
                <g id="Group" transform="translate(193.1715, 345.9187)" fill="#55256A" fill-rule="nonzero">
                    <g id="Shape">
                        <path d="M19.9130874,40.8090893 C22.1682254,40.8090893 24.1332607,40.5808505 25.8095616,40.1216065 C27.4844942,39.6637457 28.6763784,39.1713033 29.3865827,38.6456625 L29.3865827,26.1575445 L18.8498336,27.2392579 C15.8844914,27.5670917 13.6621952,28.2393586 12.1802083,29.2546752 C10.6968529,30.2713751 9.95654369,31.8289317 9.95654369,33.9259617 C9.95654369,36.0893885 10.7611682,37.776972 12.3731539,38.9900956 C13.9837713,40.2046024 16.4961702,40.8090893 19.9130874,40.8090893 M19.7201417,0 C25.7124046,0 30.4813099,1.32655131 34.0268575,3.98242045 C37.5696684,6.63690632 39.3431264,10.8171337 39.3431264,16.520336 L39.3431264,39.4327404 C39.3431264,40.9404995 39.0051294,42.1038255 38.3277669,42.9227185 C37.6517729,43.744378 36.7335705,44.5134734 35.5731597,45.2341546 C33.8968587,46.2176561 31.7375093,47.0711307 29.09648,47.7904286 C26.4527139,48.5111098 23.3929514,48.8735252 19.9130874,48.8735252 C13.6621952,48.8735252 8.77971197,47.6258201 5.26837455,45.1359427 C1.75566871,42.6460654 0,38.9748796 0,34.1223854 C0,29.7955319 1.36840897,26.4853783 4.10796374,24.1905414 C6.84615009,21.8970878 10.79401,20.4875405 15.950175,19.9618998 L29.3865827,18.5855509 L29.3865827,16.4221242 C29.3865827,13.5380163 28.4683803,11.4409863 26.6319754,10.1282676 C24.7942022,8.81831551 22.2325406,8.16126455 18.9469906,8.16126455 C16.3675397,8.16126455 13.8866143,8.52229676 11.5028458,9.24297791 C9.11770899,9.96504234 6.99120144,10.7839353 5.1233232,11.7024234 C4.47880257,11.1767826 3.93007057,10.5390974 3.47986402,9.7838346 C3.02828906,9.03133834 2.80386999,8.19446291 2.80386999,7.27597483 C2.80386999,6.16244636 3.07618337,5.24534155 3.62491537,4.52327713 C4.17227896,3.80259597 5.02616616,3.18012664 6.18657697,2.65448588 C7.99013999,1.73738106 10.0537007,1.06511419 12.3731539,0.639068512 C14.6926071,0.213022837 17.1420592,0 19.7201417,0"></path>
                    </g>
                </g>
                <g id="Group" transform="translate(243.4372, 346.3046)" fill="#55256A" fill-rule="nonzero">
                    <g id="Path">
                        <path d="M32.8664467,15.1439872 C32.0932956,18.0294783 31.2708819,20.9301854 30.4019422,23.8474917 C29.5316341,26.7647979 28.6613259,29.5991083 27.7910178,32.3531892 C26.9220781,35.1058869 26.0832434,37.6635442 25.278619,40.0233946 C24.4712577,42.383245 23.7460009,44.4484599 23.1028487,46.2176561 C22.4583281,46.6782834 21.685177,47.0379324 20.7833955,47.2993695 C19.8802456,47.5608066 18.7526766,47.6936 17.3993201,47.6936 C15.9173332,47.6936 14.5968185,47.4625948 13.4364077,47.004734 C12.2759969,46.5468732 11.5028458,45.8248088 11.1169545,44.8413073 C10.3438034,43.2685347 9.44065351,40.7454591 8.41024155,37.2693137 C7.37846118,33.7959348 6.34668082,29.9933388 5.31626886,25.862909 C4.2844885,21.7324792 3.28691835,17.5702343 2.31945321,13.3734077 C1.35335647,9.17934772 0.580205405,5.50677867 0,2.35985039 C0.515890183,1.77057943 1.23977853,1.22972274 2.17440186,0.73728034 C3.10902519,0.246221202 4.15722646,0 5.31626886,0 C8.21729588,0 9.95654369,1.6723676 10.5367491,5.01571953 C11.1169545,8.35907147 11.7450542,11.7356218 12.4210482,15.1439872 C13.0984107,18.5537358 13.7579838,21.7490784 14.4038729,24.7313981 C15.0470251,27.7164844 15.6436514,30.3709702 16.191015,32.6976223 C16.7383786,35.0256576 17.1420592,36.7782545 17.3993201,37.9581797 L17.7865798,37.9581797 C18.1081559,36.7782545 18.6076252,35.0574727 19.2849877,32.7958341 C19.9609817,30.5328123 20.7355012,27.9447231 21.6044409,25.0260336 C22.474749,22.1101106 23.4244248,18.9631823 24.4562052,15.586632 C25.4866171,12.2100817 26.5498709,8.8501306 27.6459665,5.50677867 C29.1279534,4.58967386 30.900043,4.13042982 32.9636038,4.13042982 C34.4442223,4.13042982 35.6853692,4.3932502 36.6843078,4.91750771 C37.6832463,5.44176521 38.3428194,6.19564473 38.6657639,7.17914627 C39.6961759,10.4574847 40.6964829,13.6860257 41.6625796,16.864769 C42.6300447,20.0448957 43.5140369,23.0106162 44.3213982,25.7646972 C45.1260227,28.5173949 45.8348586,30.943642 46.4479058,33.040672 C47.0595846,35.1404686 47.526212,36.7782545 47.8491566,37.9581797 L48.3322049,37.9581797 C49.6212462,32.3199909 50.9746027,26.3539682 52.3922744,20.0614949 C53.8099461,13.7676383 55.0031987,7.47378175 55.9692954,1.1799252 C56.6124476,0.852091349 57.3226519,0.574055049 58.095803,0.344433029 C58.868954,0.11481101 59.6421051,0 60.4166246,0 C61.8329279,0 62.9782862,0.329217112 63.8472259,0.983501541 C64.717534,1.63916924 65.152688,2.6890675 65.152688,4.13042982 C65.152688,4.98390443 64.9597424,6.42665001 64.5724826,8.45728329 C64.1865913,10.4892998 63.6542802,12.8671327 62.9782862,15.586632 C62.3009237,18.3075146 61.5592461,21.1916225 60.7546216,24.240339 C59.9472603,27.2890554 59.1426358,30.2229609 58.3380113,33.040672 C57.5306501,35.8611497 56.7424465,38.4492389 55.9692954,40.8090893 C55.1961443,43.1703229 54.5516237,44.9741007 54.0357335,46.2176561 C53.5198434,46.6118867 52.7466923,46.9563197 51.7162803,47.2509552 C50.6845,47.5455907 49.5240891,47.6936 48.2364163,47.6936 C44.8194991,47.6936 42.8229904,46.8747071 42.242785,45.2341546 C41.6625796,43.6613821 40.9865856,41.7289606 40.2134345,39.4327404 C39.4402834,37.1392867 38.6329221,34.6632421 37.7968242,32.0087562 C36.9579895,29.3528871 36.1191548,26.5849734 35.283057,23.6994823 C34.4442223,20.8153744 33.6395978,17.9630816 32.8664467,15.1439872"></path>
                    </g>
                </g>
                <g id="Group" transform="translate(318.4479, 345.9104)" fill="#55256A" fill-rule="nonzero">
                    <g id="Path">
                        <path d="M36.056208,34.7130396 C36.056208,39.1062898 34.4442223,42.5478536 31.2229875,45.0377309 C27.999016,47.5289915 23.3272678,48.7753134 17.2063744,48.7753134 C14.6926071,48.7753134 12.3731539,48.5788898 10.2466464,48.1846592 C8.12013885,47.7918119 6.2987865,47.2357393 4.78532618,46.5136749 C3.27049745,45.7929937 2.09366573,44.9395191 1.25619944,43.9560175 C0.418733146,42.972516 0,41.8908026 0,40.7108774 C0,39.7287592 0.240839979,38.8102711 0.725256756,37.9581797 C1.20830512,37.1060884 1.86787825,36.4186056 2.70671295,35.8929648 C4.51027598,37.07289 6.57383671,38.1546034 8.89328992,39.1381049 C11.2127431,40.1216065 13.9194561,40.6126656 17.0134288,40.6126656 C19.9130874,40.6126656 22.136752,40.1063906 23.6830541,39.0883074 C25.2293562,38.0729907 26.0025073,36.6150292 26.0025073,34.7130396 C26.0025073,33.0752537 25.4715646,31.762535 24.4083109,30.7790335 C23.3450571,29.7955319 21.7809656,29.0430357 19.7201417,28.5173949 L13.146305,26.7468155 C8.76329106,25.5682735 5.54205634,23.9623027 3.47986402,21.9289029 C1.41630329,19.8982696 0.38589133,17.1109902 0.38589133,13.5698314 C0.38589133,11.669225 0.77315107,9.88342969 1.54630214,8.21106209 C2.31945321,6.53869449 3.46344311,5.09871544 4.97827184,3.88420862 C6.49173217,2.67246832 8.37603132,1.72078188 10.6325377,1.03329909 C12.8876757,0.344433029 15.4657582,0 18.3667852,0 C20.6862384,0 22.7963251,0.181207738 24.6984136,0.540856684 C26.5977652,0.901888896 28.2412244,1.3943313 29.6274227,2.01541736 C31.013621,2.63926996 32.0932956,3.40974866 32.8664467,4.32685347 C33.6395978,5.24534155 34.0254891,6.22884309 34.0254891,7.2773581 C34.0254891,8.3258731 33.7997016,9.22914526 33.3494951,9.98164152 C32.8979201,10.735521 32.3177147,11.3427745 31.6088789,11.8006352 C30.4498365,11.0799541 28.7242728,10.2928762 26.4376614,9.44078484 C24.1496816,8.58869349 21.685177,8.16126455 19.0427793,8.16126455 C16.3360663,8.16126455 14.2095588,8.63849103 12.6632566,9.58741094 C11.1169545,10.5390974 10.342435,11.867032 10.342435,13.5698314 C10.342435,14.88255 10.7775891,15.9642634 11.6478972,16.8163548 C12.5182053,17.6684461 14.0166131,18.3573122 16.1431207,18.8801864 L21.7494922,20.3561303 C26.6470279,21.6674657 30.2568908,23.4380452 32.576344,25.6664854 C34.8957972,27.8949256 36.056208,30.9118269 36.056208,34.7130396"></path>
                    </g>
                </g>
                <g id="Group" transform="translate(365.0409, 347.2881)" fill="#55256A" fill-rule="nonzero">
                    <g id="Path">
                        <path d="M2.02935051,46.0212324 C0.675994033,44.8413073 6.0769566e-16,43.3335482 6.0769566e-16,41.4979553 C6.0769566e-16,40.5808505 0.207998164,39.6789616 0.628099719,38.7936719 C1.04546446,37.9083822 1.54630214,37.1060884 2.12650754,36.384024 L24.5519938,8.25947637 L1.64345918,8.25947637 C1.38482988,7.8016156 1.12620058,7.21234463 0.868939698,6.49028021 C0.611678811,5.76959905 0.483048368,4.98252117 0.483048368,4.13042982 C0.483048368,2.6890675 0.821045384,1.63916924 1.49840783,0.983501541 C2.17440186,0.329217112 3.05976246,0 4.15585805,0 L34.8957972,0 C36.3121005,1.11491173 37.0223048,2.65448588 37.0223048,4.62148896 C37.0223048,5.53997704 36.8293591,6.40866757 36.4420994,7.22756055 C36.056208,8.0478368 35.5389494,8.8501306 34.8957972,9.63720849 L12.5660996,37.8599679 L36.8293591,37.8599679 C37.0852516,38.2528152 37.32746,38.8102711 37.5546159,39.5309522 C37.7790349,40.2530167 37.8926129,41.0400945 37.8926129,41.8908026 C37.8926129,43.3335482 37.5546159,44.3834465 36.8772534,45.0377309 C36.2012594,45.6947819 35.3145304,46.0212324 34.2184348,46.0212324 L2.02935051,46.0212324 Z"></path>
                    </g>
                </g>
                <g id="Group" transform="translate(411.8199, 345.9159)" fill="#55256A" fill-rule="nonzero">
                    <g id="Shape">
                        <path d="M22.2325406,7.96622416 C18.6869929,7.96622416 15.73944,9.17934772 13.387145,11.6042116 C11.0334816,14.0304587 9.79370302,17.5052208 9.66644099,22.0284979 L33.4452837,18.5869342 C33.1866544,15.6364296 32.1234006,13.1285698 30.2555224,11.0633549 C28.3862757,8.99813998 25.7124046,7.96622416 22.2325406,7.96622416 M10.245278,29.6004915 C11.1470595,33.3366908 12.9040966,36.1073709 15.5136525,37.9097654 C18.1245768,39.7135432 21.4593895,40.6140489 25.5194589,40.6140489 C28.2261719,40.6140489 30.7057289,40.1880032 32.9622353,39.3359118 C35.2173733,38.4838205 37.0223048,37.5653324 38.3756612,36.5818309 C40.1792243,37.6317291 41.0823742,39.1062898 41.0823742,41.0068962 C41.0823742,42.1231912 40.6622726,43.155107 39.8248063,44.1040269 C38.9873401,45.0557134 37.8433502,45.8746063 36.3942051,46.5634724 C34.9436915,47.2523385 33.2359171,47.7918119 31.2708819,48.1860425 C29.3044782,48.5788898 27.1943915,48.7753134 24.9392535,48.7753134 C21.2007602,48.7753134 17.8002639,48.2496726 14.7405015,47.2025409 C11.6793706,46.1540259 9.05202536,44.5812534 6.862571,42.4828401 C4.67174823,40.3844269 2.97902633,37.7963377 1.78714212,34.7144229 C0.593889494,31.6325081 0,28.0609174 0,23.995501 C0,20.0614949 0.578836996,16.6047152 1.7392478,13.6210122 C2.89965861,10.6386925 4.47743416,8.14743189 6.47667967,6.14723045 C8.47181995,4.14841227 10.8254834,2.62405404 13.5321963,1.57415577 C16.2389093,0.525640767 19.1385679,0 22.2325406,0 C25.3251449,0 28.1440674,0.509041585 30.6906765,1.52435823 C33.2359171,2.5424414 35.4267399,3.95060535 37.2645132,5.75299987 C39.100918,7.55677766 40.5172213,9.70360522 41.5175282,12.1948658 C42.5150984,14.6861264 43.0159361,17.4056257 43.0159361,20.3561303 C43.0159361,21.9952996 42.6286763,23.1932072 41.8555253,23.9457035 C41.0823742,24.699583 39.9534368,25.2086246 38.4714499,25.4700617 L10.245278,29.6004915 Z"></path>
                    </g>
                </g>
                <g id="Group" transform="translate(485.7729, 347.2881)" fill="#55256A" fill-rule="nonzero">
                    <g id="Path">
                        <path d="M2.03071892,46.0212324 C0.677362442,44.8413073 0,43.3335482 0,41.4979553 C0,40.5808505 0.209366573,39.6789616 0.629468128,38.7936719 C1.04683286,37.9083822 1.54767055,37.1060884 2.12650754,36.384024 L24.5533622,8.25947637 L1.64345918,8.25947637 C1.38619829,7.8016156 1.12756899,7.21234463 0.870308107,6.49028021 C0.61304722,5.76959905 0.484416777,4.98252117 0.484416777,4.13042982 C0.484416777,2.6890675 0.822413793,1.63916924 1.49840783,0.983501541 C2.17577027,0.329217112 3.06113087,0 4.15722646,0 L34.8971656,0 C36.3134689,1.11491173 37.0236732,2.65448588 37.0236732,4.62148896 C37.0236732,5.53997704 36.8307275,6.40866757 36.4434678,7.22756055 C36.0575764,8.0478368 35.5403179,8.8501306 34.8971656,9.63720849 L12.567468,37.8599679 L36.8307275,37.8599679 C37.08662,38.2528152 37.3288284,38.8102711 37.5546159,39.5309522 C37.7804033,40.2530167 37.8939813,41.0400945 37.8939813,41.8908026 C37.8939813,43.3335482 37.5546159,44.3834465 36.8786218,45.0377309 C36.2012594,45.6947819 35.3145304,46.0212324 34.2198032,46.0212324 L2.03071892,46.0212324 Z"></path>
                    </g>
                </g>
                <g id="Group" transform="translate(552.7633, 333.6187)" fill="#55256A" fill-rule="nonzero">
                    <g id="Path">
                        <path d="M28.5162746,8.65370695 L28.5162746,59.4942353 C28.0646996,59.6906589 27.4051265,59.8704834 26.5348184,60.035092 C25.6645103,60.196934 24.7463079,60.2799299 23.7802111,60.2799299 C21.7809656,60.2799299 20.3632939,59.9022985 19.5258276,59.1498022 C18.6883613,58.397306 18.2696282,57.1343849 18.2696282,55.3638055 L18.2696282,8.65370695 L1.16041081,8.65370695 C0.836097883,8.19584618 0.563784497,7.60519194 0.337997016,6.88312752 C0.112209536,6.16244636 0,5.34493665 0,4.4250653 C0,2.98370299 0.337997016,1.88539044 1.01535946,1.13151092 C1.69135349,0.377631393 2.60955591,0 3.76996672,0 L45.8198061,0 C46.0770669,0.394230576 46.3179069,0.951686442 46.5436944,1.6723676 C46.7694819,2.39443202 46.8830598,3.18012664 46.8830598,4.03221799 C46.8830598,7.11413281 45.625492,8.65370695 43.1130931,8.65370695 L28.5162746,8.65370695 Z"></path>
                    </g>
                </g>
                <g id="Group" transform="translate(601.9672, 345.92)" fill="#55256A" fill-rule="nonzero">
                    <g id="Shape">
                        <path d="M22.909903,8.26085964 C19.0427793,8.26085964 15.9816484,9.67179012 13.7265104,12.4895013 C11.470004,15.3085957 10.3438034,19.274417 10.3438034,24.3883483 C10.3438034,29.5022797 11.4385306,33.4515018 13.6307218,36.2373978 C15.8201761,39.0246772 18.9127804,40.4176252 22.909903,40.4176252 C26.9056572,40.4176252 29.9982615,39.0246772 32.1890843,36.2373978 C34.379907,33.4515018 35.4760026,29.5022797 35.4760026,24.3883483 C35.4760026,19.3408137 34.3648545,15.3902084 32.14119,12.5392988 C29.9175254,9.68700604 26.8399736,8.26085964 22.909903,8.26085964 M45.8198061,24.3883483 C45.8198061,28.1245476 45.2710741,31.5024811 44.1763469,34.516616 C43.0802513,37.5335173 41.5490017,40.0897914 39.5853348,42.1868214 C37.6175627,44.2866179 35.2187417,45.909188 32.3833984,47.0545315 C29.5466865,48.2012584 26.389767,48.7753134 22.909903,48.7753134 C19.430039,48.7753134 16.2717511,48.2012584 13.4364077,47.0545315 C10.5996959,45.909188 8.19950657,44.2866179 6.23447128,42.1868214 C4.26806759,40.0897914 2.73818636,37.5335173 1.64345918,34.516616 C0.547363589,31.5024811 0,28.1245476 0,24.3883483 C0,20.6521491 0.547363589,17.2755988 1.64345918,14.2600807 C2.73818636,11.2445626 4.2844885,8.68828858 6.2823656,6.5898753 C8.2802427,4.4928453 10.6968529,2.87027524 13.5335647,1.72216515 C16.3675397,0.575438314 19.4929858,0 22.909903,0 C26.3240834,0 29.4495295,0.575438314 32.2862413,1.72216515 C35.1215847,2.87027524 37.538195,4.50944448 39.5360721,6.63828959 C41.5325807,8.76990122 43.0802513,11.3261753 44.1763469,14.308495 C45.2710741,17.292198 45.8198061,20.6521491 45.8198061,24.3883483"></path>
                    </g>
                </g>
                <g id="Group" transform="translate(660.8375, 328.7122)" fill="#55256A" fill-rule="nonzero">
                    <g id="Shape">
                        <path d="M19.7201417,25.4686784 C17.656581,25.4686784 15.8201761,25.8131115 14.2109272,26.5019775 C12.5989414,27.1894603 11.2141115,27.9931374 10.0537007,28.9102422 L10.0537007,55.0677867 C10.9554822,55.7234544 12.2116817,56.3141086 13.8236674,56.8383661 C15.4342848,57.3640069 17.3035315,57.625444 19.430039,57.625444 C23.3601096,57.625444 26.5498709,56.3141086 29.0006914,53.6914379 C31.448775,51.0701503 32.6735011,47.004734 32.6735011,41.4979553 C32.6735011,35.9261632 31.4651959,31.8607468 29.0485857,29.3044728 C26.6319754,26.7468155 23.5215818,25.4686784 19.7201417,25.4686784 M21.3636009,17.2078188 C24.3918899,17.2078188 27.2272333,17.7168604 29.8696311,18.732177 C32.5120288,19.7502602 34.8000086,21.256636 36.7335705,23.2568374 C38.6671324,25.2570389 40.1805927,27.7801146 41.2766883,30.828831 C42.3714154,33.8761642 42.9201474,37.4339222 42.9201474,41.4979553 C42.9201474,45.6283851 42.3549945,49.2345575 41.228794,52.315089 C40.0998566,55.3970038 38.5056601,57.9366787 36.4434678,59.9354969 C34.379907,61.9370816 31.9154025,63.4434574 29.0485857,64.458774 C26.1804005,65.4754739 23.0070601,65.9831322 19.527196,65.9831322 C16.047332,65.9831322 12.9684118,65.5570865 10.2959091,64.7049952 C7.62066957,63.8542871 5.4448993,62.8707856 3.76996672,61.7558738 C2.41661025,60.8373858 1.45051351,59.920281 0.870308107,59.0017929 C0.290102702,58.0846881 0,56.9047629 0,55.4620173 L0,0.787077886 C0.450206552,0.655667694 1.09609559,0.491059138 1.93356188,0.294635483 C2.77102817,0.0982118276 3.67417809,0 4.64027483,0 C6.50815308,0 7.87793046,0.361032211 8.74823857,1.08171337 C9.61854667,1.80377779 10.0537007,3.01551809 10.0537007,4.71970078 L10.0537007,20.2579185 C11.470004,19.4708406 13.1134632,18.7667587 14.9840783,18.1429061 C16.8519565,17.5204367 18.978464,17.2078188 21.3636009,17.2078188"></path>
                    </g>
                </g>
                <g id="Group" transform="translate(713.9989, 345.9187)" fill="#55256A" fill-rule="nonzero">
                    <g id="Shape">
                        <path d="M19.9130874,40.8090893 C22.1682254,40.8090893 24.1332607,40.5808505 25.8095616,40.1216065 C27.4844942,39.6637457 28.6763784,39.1713033 29.3865827,38.6456625 L29.3865827,26.1575445 L18.8498336,27.2392579 C15.8844914,27.5670917 13.6621952,28.2393586 12.1802083,29.2546752 C10.6968529,30.2713751 9.95654369,31.8289317 9.95654369,33.9259617 C9.95654369,36.0893885 10.7611682,37.776972 12.3731539,38.9900956 C13.9837713,40.2046024 16.4961702,40.8090893 19.9130874,40.8090893 M19.7187733,0 C25.713773,0 30.4813099,1.32655131 34.0268575,3.98242045 C37.5696684,6.63690632 39.3431264,10.8171337 39.3431264,16.520336 L39.3431264,39.4327404 C39.3431264,40.875486 39.0530237,41.9890145 38.4728183,42.7760923 C37.8926129,43.5631702 37.1194618,44.2852347 36.1519967,44.9395191 C34.5413793,46.2508545 33.2673905,47.5455907 32.3341356,48.8237277 C31.3995123,50.1018647 30.9328848,51.7244348 30.9328848,53.6914379 C30.9328848,55.3956206 31.4309857,56.6571584 32.4312927,57.4774346 C33.4288628,58.2963276 34.8629554,58.7071574 36.7322021,58.7071574 L37.9897699,58.7071574 C38.3756612,59.6242622 38.5699753,60.541367 38.5699753,61.4598551 C38.5699753,62.7698072 38.1348213,63.869503 37.2645132,64.7547927 C36.3942051,65.6400825 34.831482,66.0813441 32.576344,66.0813441 C29.5466865,66.0813441 26.985025,65.2292527 24.8913592,63.52507 C22.7963251,61.819504 21.7494922,59.4264553 21.7494922,56.3459237 C21.7494922,54.5767276 22.0546474,53.0675853 22.6676946,51.8226466 C23.2793735,50.5763247 24.0361036,49.4946113 24.9392535,48.5775065 C23.3929514,48.7753134 21.7166504,48.8735252 19.9130874,48.8735252 C13.6621952,48.8735252 8.77971197,47.6258201 5.26837455,45.1359427 C1.7543003,42.6460654 0,38.9748796 0,34.1223854 C0,29.7955319 1.36840897,26.4853783 4.10796374,24.1905414 C6.84615009,21.8970878 10.7926416,20.4875405 15.950175,19.9618998 L29.3865827,18.5855509 L29.3865827,16.4221242 C29.3865827,13.5380163 28.4683803,11.4409863 26.6319754,10.1282676 C24.7942022,8.81831551 22.2325406,8.16126455 18.9469906,8.16126455 C16.3675397,8.16126455 13.8866143,8.52229676 11.5028458,9.24297791 C9.11770899,9.96504234 6.99120144,10.7839353 5.1233232,11.7024234 C4.47880257,11.1767826 3.93007057,10.5390974 3.47986402,9.7838346 C3.02828906,9.03133834 2.80386999,8.19446291 2.80386999,7.27597483 C2.80386999,6.16244636 3.07618337,5.24534155 3.62491537,4.52327713 C4.17091055,3.80259597 5.02616616,3.18012664 6.18657697,2.65448588 C7.99013999,1.73738106 10.0523323,1.06511419 12.3731539,0.639068512 C14.6926071,0.213022837 17.1406908,0 19.7187733,0"></path>
                    </g>
                </g>
                <g id="Kropka" transform="translate(720, 227)">
                    <g id="Group" transform="translate(34, 34) rotate(-90) translate(-34, -34)translate(-0, 0)">
                        <mask id="mask-2" fill="white">
                            <use xlink:href="#path-1"></use>
                        </mask>
                        <g id="Oval"></g>
                        <ellipse id="Oval" fill="#EF13A5" filter="url(#filter-3)" mask="url(#mask-2)" cx="22.7954539" cy="56.8809399" rx="34.1931808" ry="34.1285639"></ellipse>
                        <ellipse id="Oval-Copy-6" fill="#F98B44" filter="url(#filter-4)" mask="url(#mask-2)" cx="22.7954539" cy="2.48689958e-13" rx="34.1931808" ry="34.1285639"></ellipse>
                        <ellipse id="Oval-Copy-5" fill="#582369" filter="url(#filter-5)" mask="url(#mask-2)" cx="68.3863616" cy="22.7523759" rx="34.1931808" ry="34.1285639"></ellipse>
                    </g>
                </g>
            </g>
        </g>
    </g>
</svg>